<svg width="406" height="280" viewBox="0 0 406 280" fill="none" xmlns="http://www.w3.org/2000/svg">
<path d="M405.15 129.622C400.483 96.5809 376.301 74.5537 339.816 70.3177C335.15 69.8941 329.21 66.0817 326.665 62.2693C302.059 27.9576 271.089 8.04841 232.483 1.6944C232.483 1.2708 223.998 0.847201 214.665 0.423601V0C212.968 0 208.301 0 202.786 0.423601C197.695 0 193.028 0 191.331 0V0.847201C181.998 1.2708 173.513 1.6944 173.513 2.118C134.907 8.04841 103.938 28.3812 79.3315 62.2693C76.3618 66.0817 70.8466 69.8941 66.1799 70.3177C29.6951 74.5537 5.08902 96.5809 0.846595 129.622C-3.82007 163.086 14.4224 191.467 47.5133 205.023C51.7557 206.717 55.9981 213.071 56.4224 217.731C57.6951 232.133 57.6951 246.536 56.8466 260.938C55.9981 276.188 62.3618 280.424 76.786 280.424C91.6345 280.424 146.362 280 203.21 280C260.059 280 314.786 280 329.634 280.424C344.059 280.424 350.422 276.188 349.574 260.938C348.725 246.536 348.725 232.133 349.998 217.731C350.422 213.071 355.089 206.717 358.907 205.023C391.998 191.467 409.816 162.663 405.15 129.622ZM113.271 255.855H79.7557C79.7557 238.487 78.9072 222.39 79.7557 205.87C80.6042 191.467 76.3618 184.69 60.6648 182.995C37.7557 180.454 21.6345 158.85 23.3314 135.552C25.0284 111.831 43.2708 94.0393 66.1799 93.1921C89.5133 92.3449 111.998 108.442 112.847 131.316C114.544 172.405 113.271 213.495 113.271 255.855ZM268.544 256.278H214.665H190.907H137.453V174.523H191.331H215.089H268.968V256.278H268.544ZM270.241 136.399C270.241 149.531 265.15 151.649 253.695 151.225C245.634 151.225 229.938 151.225 229.938 150.802C225.695 150.802 220.604 150.802 215.089 150.802C207.028 150.802 198.968 150.802 191.331 150.802C185.816 150.802 180.725 150.802 176.483 150.802C176.483 150.802 160.786 150.802 152.725 151.225C141.271 151.225 136.604 149.107 136.18 136.399C135.756 110.56 126.422 96.5809 98.4224 75.8245C122.18 42.7837 153.574 24.1452 193.877 23.298C196.847 23.298 199.816 23.298 203.21 23.298C206.18 23.298 209.15 23.298 212.544 23.298C252.847 24.1452 284.241 42.7837 307.998 75.8245C279.998 96.1573 270.241 110.136 270.241 136.399ZM345.756 182.995C330.059 184.69 325.816 191.467 326.665 205.87C327.513 221.967 326.665 238.487 326.665 255.855H292.725C292.725 213.495 291.453 172.405 293.15 131.316C293.998 108.442 316.483 91.9213 339.816 93.1921C363.15 94.0393 381.392 112.254 382.665 135.552C384.362 158.85 368.665 180.454 345.756 182.995Z" fill="url(#paint0_linear)"/>
<defs>
<linearGradient id="paint0_linear" x1="-0.00188974" y1="139.992" x2="805.113" y2="139.992" gradientUnits="userSpaceOnUse">
<stop stop-color="#682690"/>
<stop offset="0.0337347" stop-color="#63258E"/>
<stop offset="0.2576" stop-color="#4A2185"/>
<stop offset="0.4892" stop-color="#371E7F"/>
<stop offset="0.7311" stop-color="#2D1D7B"/>
<stop offset="1" stop-color="#291C7A"/>
</linearGradient>
</defs>
</svg>
