<svg width="316" height="316" viewBox="0 0 316 316" fill="none" xmlns="http://www.w3.org/2000/svg">
<path d="M267.255 316C188.255 316 109.255 316 30.2553 316C29.583 315.664 29.2468 315.664 28.5745 315.328C18.8255 313.647 10.7574 308.94 5.71489 300.2C3.02553 295.83 2.01702 290.787 0 286.081C0 227.251 0 168.421 0 109.591C0.33617 108.919 0.33617 108.583 0.67234 107.911C3.69787 93.7915 12.1021 84.7149 25.8851 81.017C27.566 80.3447 29.583 80.3447 31.6 80.0085C30.2553 76.6468 29.2468 73.2851 27.9021 69.9234C22.8596 56.4766 28.5745 45.0468 41.6851 40.0043C78.6638 26.8936 115.643 13.4468 152.285 0C154.302 0 156.319 0 158.336 0C158.672 0.33617 159.009 0.33617 159.345 0.33617C167.749 2.01702 173.128 7.05958 175.817 14.7915C177.834 20.5064 180.187 26.5574 182.204 32.6085C182.877 34.9617 183.885 35.634 186.574 35.634C205.4 35.634 224.226 35.634 243.051 35.634C255.153 35.634 264.566 45.0468 264.566 57.1489C264.566 61.8553 264.566 66.5617 264.566 71.2681C264.566 73.9575 264.566 76.983 264.566 79.6723C285.409 82.0255 297.174 95.4723 297.174 115.979C297.174 126.736 297.174 137.494 297.174 148.251C297.174 149.932 297.847 150.604 299.528 151.613C303.226 153.294 307.26 154.974 309.949 158C312.638 161.026 313.983 165.06 316 168.757C316 187.583 316 206.745 316 225.57C314.319 230.949 311.966 236.328 306.587 239.353C303.898 241.034 300.872 242.043 297.511 243.723C297.511 245.068 297.511 246.749 297.511 248.43C297.511 259.86 297.511 271.289 297.511 282.719C297.174 297.174 287.426 309.949 273.643 314.319C271.289 314.991 269.272 315.328 267.255 316ZM279.021 151.277C279.021 138.838 279.021 127.072 279.021 114.97C279.021 105.221 272.634 98.834 262.549 98.834C186.574 98.834 110.6 98.834 34.9617 98.834C24.8766 98.834 18.4894 105.221 18.4894 115.306C18.4894 170.438 18.4894 225.906 18.4894 281.038C18.4894 291.123 24.8766 297.511 34.9617 297.511C110.6 297.511 186.574 297.511 262.213 297.511C271.962 297.511 278.685 291.123 278.685 281.038C278.685 269.609 278.685 257.843 278.685 246.413C278.685 245.404 278.685 244.732 278.349 243.723C275.323 243.723 272.298 243.723 269.272 243.723C259.187 243.723 248.766 244.06 238.681 243.051C216.83 240.698 199.685 222.545 198.34 200.694C196.66 178.506 210.779 158.336 232.294 152.621C238.681 150.94 245.74 150.94 252.464 150.94C261.54 150.94 269.945 151.277 279.021 151.277ZM164.051 35.634C162.37 30.9277 160.689 26.2213 159.009 21.8511C157.664 18.4894 156.655 18.1532 153.294 19.1617C118.332 31.9362 83.034 44.7106 48.0723 57.4851C44.7106 58.8298 44.3745 59.8383 45.383 63.5362C47.0638 68.2426 49.0809 72.6128 50.4255 77.3192C51.0979 79.6723 52.4426 80.3447 54.4596 80.0085C81.3532 80.0085 108.247 80.0085 135.14 80.0085C136.149 80.0085 137.157 80.0085 138.166 80.0085C138.166 72.2766 138.166 64.8809 138.166 57.4851C138.166 46.7277 145.562 37.9872 156.319 35.9702C158.672 35.634 161.026 35.634 164.051 35.634ZM268.6 169.766C260.868 169.766 253.136 169.766 245.404 169.766C229.604 169.766 217.502 181.868 217.166 197.332C217.166 212.796 229.268 225.234 245.404 225.234C261.204 225.234 277.004 225.234 292.804 225.234C296.502 225.234 297.511 224.226 297.511 220.864C297.511 205.4 297.511 189.936 297.511 174.136C297.511 170.438 296.502 169.766 292.804 169.766C284.736 169.766 276.668 169.766 268.6 169.766ZM246.077 80.0085C246.077 72.2766 246.077 64.5447 246.077 57.1489C246.077 54.7957 244.396 54.1234 242.043 54.1234C214.813 54.1234 187.919 54.1234 160.689 54.1234C158 54.1234 156.655 55.4681 156.655 58.1574C156.655 62.8638 156.655 67.5702 156.655 71.9404C156.655 74.6298 156.655 77.3192 156.655 79.6723C186.911 80.0085 216.494 80.0085 246.077 80.0085Z" fill="url(#paint0_linear)"/>
<path d="M254.145 197.332C254.145 202.375 250.111 206.745 245.068 206.745C240.025 206.745 235.655 202.711 235.655 197.332C235.655 192.289 239.689 188.255 244.732 188.255C250.111 188.255 254.145 192.289 254.145 197.332Z" fill="url(#paint1_linear)"/>
<defs>
<linearGradient id="paint0_linear" x1="0" y1="158" x2="316" y2="158" gradientUnits="userSpaceOnUse">
<stop stop-color="#682690"/>
<stop offset="0.0337347" stop-color="#63258E"/>
<stop offset="0.2576" stop-color="#4A2185"/>
<stop offset="0.4892" stop-color="#371E7F"/>
<stop offset="0.7311" stop-color="#2D1D7B"/>
<stop offset="1" stop-color="#291C7A"/>
</linearGradient>
<linearGradient id="paint1_linear" x1="235.762" y1="197.452" x2="254.272" y2="197.452" gradientUnits="userSpaceOnUse">
<stop stop-color="#682690"/>
<stop offset="0.0337347" stop-color="#63258E"/>
<stop offset="0.2576" stop-color="#4A2185"/>
<stop offset="0.4892" stop-color="#371E7F"/>
<stop offset="0.7311" stop-color="#2D1D7B"/>
<stop offset="1" stop-color="#291C7A"/>
</linearGradient>
</defs>
</svg>
