<svg width="387" height="350" viewBox="0 0 387 350" fill="none" xmlns="http://www.w3.org/2000/svg">
<path d="M387 113.699C387 112.486 386.595 111.272 386.595 110.058C386.19 107.63 385.786 104.798 385.381 101.965C376.07 53.815 348.138 21.4451 301.585 5.26012C287.416 0.404624 272.843 0 259.079 0.404624C238.029 0.809249 217.789 7.68786 196.738 21.4451C196.334 21.8497 195.929 22.2543 195.119 22.2543C194.31 22.659 193.5 23.0636 192.69 23.8728C189.857 21.4451 186.213 19.0173 182.165 16.5896C163.544 5.66474 143.708 0.404624 123.063 0.404624C122.253 0.404624 121.444 0.404624 120.634 0.404624C120.229 0.404624 119.824 0.404624 119.015 0.404624L117.395 0H116.991C116.181 0 114.967 0 114.157 0C112.133 0 109.704 0.404624 107.275 0.404624C89.4634 2.42775 72.4613 8.09249 57.4833 17.8035C27.5272 36.8208 8.50105 64.3353 1.61925 100.751C1.21444 103.584 0.809623 106.416 0.404812 109.249C0.404812 110.462 0 111.676 0 112.89V129.884V130.694C0 131.098 0 131.098 0 131.503C0.404812 141.214 2.42887 150.925 6.47699 161.85C12.954 179.653 21.0502 192.601 31.9801 203.526C35.6234 207.168 39.6715 211.214 43.3149 215.26C46.9582 218.902 50.1967 222.543 53.84 226.185C87.4393 259.769 123.468 295.78 159.091 330.983C163.544 335.434 168.402 339.48 172.855 343.121C173.664 343.931 174.879 344.74 175.688 345.549C179.332 348.382 183.38 350 187.428 350H187.833C188.642 350 189.452 350 190.262 350C193.095 350 196.334 350 199.167 349.191C203.62 348.382 207.264 347.168 210.097 345.145C219.813 339.075 225.48 330.173 227.099 319.249C227.099 318.844 227.099 318.439 227.099 317.63C248.959 314.798 256.651 299.827 259.079 285.665C273.653 284.451 287.012 273.121 289.845 258.96C290.25 257.341 290.25 255.318 290.25 253.699C298.346 253.295 304.823 250.462 310.086 245.202C316.158 239.133 322.23 233.064 328.302 226.994C335.994 219.306 343.685 211.618 351.781 203.931C368.783 187.341 379.309 166.301 383.762 141.214C384.166 137.977 384.571 134.74 384.976 131.503C384.976 130.289 385.381 128.671 385.381 127.457V113.699H387ZM322.23 201.098C321.421 201.908 321.016 202.312 320.206 203.121C316.158 196.243 310.491 190.983 305.633 185.723C304.014 184.104 302.394 182.486 300.775 180.867C290.25 169.942 279.725 159.422 269.605 148.902C266.366 145.665 263.128 142.023 259.484 138.786C266.366 135.954 272.843 131.503 278.106 126.243C281.344 123.006 282.559 118.15 281.344 113.699C280.13 109.653 276.891 106.416 272.438 105.202C270.009 104.393 266.771 104.798 264.342 106.012C262.723 106.821 261.508 107.63 260.294 108.439C259.889 108.844 259.484 109.249 259.079 109.249C258.27 109.653 257.46 110.462 256.246 111.272C253.817 112.89 251.388 114.509 249.364 115.723C247.745 116.532 244.911 116.936 242.482 117.341C231.957 118.555 222.646 114.913 210.097 105.202C209.288 104.393 208.073 103.584 207.264 102.775C206.049 101.561 204.835 100.751 203.215 99.5376C197.953 95.4913 192.69 95.4913 187.833 99.5376C184.594 101.965 181.356 104.798 177.712 108.439C172.45 113.295 167.592 118.15 162.329 123.41C157.877 127.861 153.424 132.312 148.971 136.358C144.518 140.809 139.255 142.832 133.588 142.428C127.111 142.023 122.253 140.405 117.8 136.763C117.395 136.358 116.586 135.549 116.181 135.145C119.015 132.312 121.848 129.48 124.682 126.243C133.588 116.936 142.899 107.225 152.209 97.9191C169.616 80.5202 188.237 62.3121 206.859 44.5087C213.741 37.6301 223.051 33.5838 231.957 30.3468C246.53 24.6821 262.318 23.0636 278.51 25.0867C318.587 30.3468 351.781 61.0983 359.473 99.9422C365.95 131.908 358.663 160.231 338.423 183.295C333.16 189.769 327.493 195.434 322.23 201.098ZM237.624 182.081C231.147 176.012 225.075 169.538 218.598 163.468C216.979 161.85 214.55 160.231 212.121 158.208C205.644 154.162 201.191 158.613 199.167 160.636C193.095 166.705 196.334 172.37 197.548 173.584L197.953 173.988C199.977 176.416 201.596 179.249 204.025 181.676C212.121 189.769 219.813 197.861 227.909 205.954C235.6 213.642 243.292 221.329 250.578 229.017C255.031 233.873 260.294 239.133 265.152 244.798C266.771 246.821 267.581 249.653 267.176 252.081C266.771 254.913 265.152 257.341 262.318 258.96C260.294 260.173 256.246 261.792 252.603 258.555C243.697 250.867 235.196 242.37 227.504 235.087C218.598 226.185 209.288 217.283 200.382 208.382C195.524 203.526 190.262 198.671 185.404 193.41C184.189 192.197 182.975 191.387 181.76 190.173C178.522 187.746 174.474 187.341 170.426 188.555C166.782 189.769 163.949 193.006 162.734 196.647C161.925 199.48 162.734 202.717 164.354 205.145C166.378 207.572 168.806 210.809 171.64 214.046C179.332 222.139 187.428 230.231 195.119 237.919C202.406 245.202 209.692 252.89 216.979 260.173C223.456 267.052 228.314 272.312 233.172 277.168C234.386 278.382 234.791 280.809 234.791 282.832C234.791 285.26 233.576 287.283 232.362 288.497C230.743 290.116 228.314 291.329 225.885 292.139C224.266 292.948 222.646 292.543 221.432 291.329C216.574 287.283 211.312 282.428 206.049 277.572C196.334 268.266 186.618 258.555 176.903 248.844C170.426 242.37 163.544 235.896 157.067 229.422C154.638 226.994 152.209 224.971 149.376 222.543C144.923 218.902 138.446 219.306 133.993 223.757C129.945 227.803 129.135 234.682 132.778 239.133C136.422 243.179 139.66 247.225 142.899 250.462C152.614 260.578 162.734 270.694 172.45 280.405C179.736 287.688 186.618 294.971 193.905 302.254C196.334 304.682 198.358 307.11 200.787 309.538L202.001 310.751C203.215 316.821 201.596 319.249 199.977 321.272C197.143 324.104 193.905 325.318 189.857 324.104C189.047 323.699 188.237 323.295 187.833 322.89L186.213 321.676C174.879 310.751 163.139 299.827 152.209 288.497C135.207 271.503 118.205 254.104 101.203 237.514C85.0105 221.329 68.4132 204.74 52.2207 188.15C37.6475 173.584 29.1464 156.185 25.9079 136.763C22.6695 114.104 26.3128 91.8497 37.2427 73.237C47.363 55.8382 63.1506 41.6763 81.772 33.5838C94.7259 27.9191 107.68 25.0867 121.039 25.0867C136.422 25.0867 151.804 29.1329 166.782 36.8208C169.211 38.0347 172.045 39.6532 174.474 41.2717C173.664 41.6763 173.259 42.4855 172.855 42.8902C165.163 50.578 157.472 58.2659 149.78 65.9538C132.778 82.948 116.181 99.9422 99.1789 116.936C94.7259 121.387 90.6778 126.647 91.0826 134.335C91.4874 141.214 93.9163 147.688 99.5837 152.948C114.967 169.133 141.279 171.965 159.496 159.827C164.354 156.59 168.806 152.139 172.855 148.092C173.664 147.283 174.879 146.069 175.688 145.26C180.951 140 186.213 134.74 191.476 129.884C193.095 128.671 194.31 127.052 195.929 125.838C195.929 125.838 195.929 125.838 196.334 126.243C199.977 128.671 203.215 131.503 207.264 133.526C210.502 135.549 214.145 136.763 217.384 138.382C219.408 139.191 221.432 140 223.456 140.809C225.075 141.618 226.695 142.428 227.909 143.642C235.6 150.925 241.673 156.59 246.935 162.254C259.079 174.798 271.629 187.341 283.773 199.48L295.108 210.809C295.513 211.214 295.917 211.618 296.322 212.023C296.727 212.428 297.537 213.237 297.941 213.642C300.37 216.069 300.775 218.902 299.561 222.543C297.941 226.59 295.513 228.613 291.06 229.017C287.821 229.422 286.607 228.613 285.392 227.399L283.773 226.59C276.082 219.306 267.985 212.023 260.294 204.335C252.603 197.052 244.911 189.364 237.624 182.081Z" fill="url(#paint0_linear)"/>
<defs>
<linearGradient id="paint0_linear" x1="0" y1="175" x2="387.009" y2="175" gradientUnits="userSpaceOnUse">
<stop stop-color="#682690"/>
<stop offset="0.0337347" stop-color="#63258E"/>
<stop offset="0.2576" stop-color="#4A2185"/>
<stop offset="0.4892" stop-color="#371E7F"/>
<stop offset="0.7311" stop-color="#2D1D7B"/>
<stop offset="1" stop-color="#291C7A"/>
</linearGradient>
</defs>
</svg>
