<svg width="291" height="291" viewBox="0 0 291 291" fill="none" xmlns="http://www.w3.org/2000/svg">
<g clip-path="url(#clip0)">
<path d="M267 291C186 291 105 291 24 291C23.6 290.9 23.3 290.7 22.9 290.6C13.4 289.1 6.60002 284 2.50002 275.5C1.20002 272.8 0.800024 269.8 -0.0999756 267C-0.0999756 265.3 -0.0999756 263.6 -0.0999756 261.9C0.100024 261.3 0.300024 260.7 0.400024 260.2C2.20002 248.9 11.3 239.9 22.6 238.3C24.6 238 25.1 237.3 25.1 235.4C25 204.9 25 174.5 25.1 144C25.1 142.2 24.5 141.3 22.9 140.4C13.2 135.2 6.40002 127.5 2.70002 117.1C1.40002 113.4 0.800024 109.5 -0.0999756 105.7C-0.0999756 103.4 -0.0999756 101.1 -0.0999756 98.8C1.00002 96.9 2.00002 95 3.10002 93.2C13.8 76.7 24.5 60.2 35.2 43.7C35.8 42.7 36.2 41.5 36.2 40.3C36.3 35.4 36.2 30.5 36.3 25.5C36.5 15 41.3 7.10002 50.7 2.40002C53.1 1.20002 55.9 0.700024 58.5 -0.0999756C116.4 -0.0999756 174.3 -0.0999756 232.2 -0.0999756C232.6 0.100024 233 0.300024 233.5 0.300024C244.2 2.00002 253 10.8 254.1 21.6C254.7 27.6 254.3 33.7 254.6 39.8C254.7 41.2 255.1 42.8 255.9 44C267.5 62.3 279.3 80.5 291 98.7C291 101 291 103.3 291 105.6C290.9 106 290.7 106.3 290.6 106.7C288.7 122 280.9 133.3 267.3 140.6C266.1 141.3 265.8 142.1 265.8 143.3C265.8 174.1 265.8 204.9 265.8 235.6C265.8 237.1 266.2 237.7 267.8 237.9C277.2 239.2 284.1 244.1 288.2 252.7C289.5 255.5 290.1 258.6 291 261.6C291 263.3 291 265 291 266.7C290.9 267.1 290.7 267.6 290.6 268C289.1 277.3 284 284.1 275.5 288.1C272.9 289.7 269.8 290.2 267 291ZM266.9 92.3C266.3 91.3 266 90.6 265.6 90C257.2 77 248.8 64.1 240.3 51.1C238.6 48.6 237.8 45.9 237.8 42.9C237.9 37.4 237.9 31.8 237.8 26.3C237.8 20.2 234.5 16.9 228.4 16.8C226 16.8 223.6 16.8 221.2 16.8C168.6 16.8 115.9 16.8 63.3 16.8C56.2 16.8 53.2 19.9 53.1 26.9C53.1 32.1 53 37.4 53.1 42.6C53.2 45.8 52.3 48.6 50.5 51.3C42 64.2 33.6 77.2 25.2 90.2C24.8 90.8 24.5 91.4 24 92.3C105.2 92.3 185.8 92.3 266.9 92.3ZM145.4 128.2C136.5 139.3 125.2 145.5 111.1 145.5C96.9 145.5 85.7 139.2 76.9 128.1C68 139.5 56.5 145.4 42.1 145.6C42.1 176.4 42.1 207 42.1 237.7C49.5 237.7 56.8 237.7 64.3 237.7C64.3 236.6 64.3 235.7 64.3 234.8C64.3 219.8 64.3 204.8 64.3 189.8C64.3 187.1 64.4 184.4 64.7 181.7C65.7 170.4 75.7 160.4 87 159.8C95.2 159.4 103.5 159.5 111.7 159.5C117.1 159.5 122.2 161 126.6 164.3C133.9 169.7 137.1 177.1 137.1 186C137.1 202.2 137.1 218.5 137.1 234.7C137.1 235.6 137.1 236.5 137.1 237.6C174.5 237.6 211.6 237.6 248.9 237.6C248.9 206.9 248.9 176.3 248.9 145.5C234.5 145.3 223 139.3 214.1 128C196.2 151.4 162.6 151 145.4 128.2ZM145.5 254.6C106.6 254.6 67.8 254.6 28.9 254.6C27.8 254.6 26.7 254.6 25.7 254.7C21 255.2 17.4 258.8 17 263.4C16.5 268.1 19.3 272.5 23.7 273.7C25.4 274.2 27.2 274.2 29 274.2C106.7 274.2 184.4 274.2 262.2 274.2C263.4 274.2 264.7 274.2 265.9 274C269.8 273.5 273.1 270.5 274 266.8C274.9 262.8 273.5 258.4 270.1 256.5C268 255.3 265.3 254.6 262.9 254.6C223.7 254.6 184.6 254.6 145.5 254.6ZM120.2 237.7C120.3 237 120.4 236.6 120.4 236.1C120.4 219.2 120.4 202.2 120.4 185.3C120.4 179.7 116.9 176.3 111.2 176.2C104.5 176.1 97.8 176.2 91.1 176.2C84.4 176.2 81.2 179.3 81.2 186.1C81.2 202.4 81.2 218.7 81.2 235.1C81.2 235.9 81.2 236.7 81.2 237.7C94.3 237.7 107.1 237.7 120.2 237.7ZM135.9 109.3C119.3 109.3 102.9 109.3 86.5 109.3C88.5 120.2 100 129 111.5 128.7C123.1 128.5 134.3 119.6 135.9 109.3ZM155.2 109.2C156.2 119.1 168 128.5 179.6 128.7C191.2 128.8 203.3 119.4 204.5 109.2C188 109.2 171.6 109.2 155.2 109.2ZM18 109.2C20.2 120.8 32.5 129.6 44.7 128.6C55.7 127.7 67.1 117.9 67.2 109.2C50.9 109.2 34.5 109.2 18 109.2ZM223.6 109.2C225.7 120.5 237.8 129.3 249.5 128.7C262.8 128 272 116.8 272.8 109.2C256.5 109.2 240.1 109.2 223.6 109.2Z" fill="url(#paint0_linear)"/>
<path d="M189.9 209.7C185.7 209.7 181.4 209.9 177.2 209.7C166.1 209.1 156.7 200.8 154.4 189.8C152.2 179.1 157.4 167.9 167.1 162.7C170.9 160.6 175 159.7 179.3 159.7C187.5 159.7 195.8 159.6 204 160C215.3 160.5 225.1 170.6 226.4 181.9C228.1 197 216.3 210 201.5 210C197.7 210 193.8 210 190 210C189.9 209.8 189.9 209.7 189.9 209.7ZM190.2 193.1C193.7 193.1 197.3 193.1 200.8 193.1C206.2 193 209.8 189.6 209.7 184.6C209.7 179.8 206.1 176.3 200.9 176.3C193.8 176.2 186.8 176.2 179.7 176.3C174.4 176.3 170.6 180 170.7 184.8C170.7 189.5 174.5 193 179.6 193.1C183.1 193.1 186.7 193.1 190.2 193.1Z" fill="url(#paint1_linear)"/>
</g>
<defs>
<linearGradient id="paint0_linear" x1="2.44104e-05" y1="145.5" x2="291" y2="145.5" gradientUnits="userSpaceOnUse">
<stop stop-color="#682690"/>
<stop offset="0.0337347" stop-color="#63258E"/>
<stop offset="0.2576" stop-color="#4A2185"/>
<stop offset="0.4892" stop-color="#371E7F"/>
<stop offset="0.7311" stop-color="#2D1D7B"/>
<stop offset="1" stop-color="#291C7A"/>
</linearGradient>
<linearGradient id="paint1_linear" x1="153.947" y1="184.659" x2="226.553" y2="184.659" gradientUnits="userSpaceOnUse">
<stop stop-color="#682690"/>
<stop offset="0.0337347" stop-color="#63258E"/>
<stop offset="0.2576" stop-color="#4A2185"/>
<stop offset="0.4892" stop-color="#371E7F"/>
<stop offset="0.7311" stop-color="#2D1D7B"/>
<stop offset="1" stop-color="#291C7A"/>
</linearGradient>
<clipPath id="clip0">
<rect width="291" height="291" fill="white"/>
</clipPath>
</defs>
</svg>
