<svg width="306" height="306" viewBox="0 0 306 306" fill="none" xmlns="http://www.w3.org/2000/svg">
<g clip-path="url(#clip0)">
<path d="M242.557 0C246.082 0 249.286 0 252.81 0C253.451 0.320419 253.772 0.320419 254.413 0.640838C278.124 4.48586 294.465 17.623 302.796 40.3728C304.398 44.8586 305.039 49.3445 306 53.8304C306 57.355 306 60.8796 306 64.7246C305.039 69.5309 304.398 74.0168 303.116 78.823C298.951 94.2031 291.261 107.661 281.648 120.157C280.367 121.759 280.046 123.361 280.687 125.284C282.609 134.896 284.852 144.188 285.493 153.801C287.416 181.037 282.289 207.311 268.831 231.342C246.723 271.074 213.079 295.426 168.54 304.078C163.093 305.039 157.646 305.68 152.199 306.32C146.111 306.32 140.343 306.32 134.256 306.32C133.615 306 132.974 306 132.333 305.68C107.661 303.757 84.911 296.067 64.7246 282.289C30.4398 259.539 9.93299 228.138 2.24293 188.406C1.28168 182.639 0.640838 177.192 0 171.424C0 165.977 0 160.209 0 154.762C0.320419 153.801 0.320419 153.16 0.640838 152.199C1.28168 141.305 3.52461 130.731 6.7288 120.477C31.0806 42.2953 115.671 0.64084 192.251 29.1581C194.815 30.1194 195.776 29.799 197.058 27.556C204.427 15.7005 214.681 7.69005 227.818 3.52461C232.945 1.60209 237.751 0.961257 242.557 0ZM246.723 131.051C255.694 123.361 269.472 107.02 275.24 97.4073C281.328 86.8335 286.134 75.9393 287.736 63.7634C290.94 35.5665 264.986 12.1759 237.43 18.9047C215.001 24.3518 202.184 46.4607 206.991 69.5309C209.874 82.0272 215.642 93.2419 223.012 103.495C229.74 114.069 238.071 122.72 246.723 131.051ZM63.4429 154.121C63.7634 152.519 63.7634 150.917 64.0838 149.315C64.4042 145.791 64.4042 141.946 65.045 138.421C67.288 127.206 69.5309 115.992 72.0942 104.457C72.4147 102.534 72.0942 101.893 70.4921 101.252C64.7246 98.689 58.9571 96.1257 53.51 93.5623C49.9853 91.9602 46.7812 90.0377 43.577 88.1152C28.8377 106.059 18.9047 135.858 18.9047 153.801C33.644 154.121 48.3832 154.121 63.4429 154.121ZM42.9361 237.751C52.8691 232.945 62.4817 228.138 72.4147 223.332C67.288 206.67 64.4042 189.688 63.4429 172.065C48.0628 172.065 33.3236 172.065 18.2639 172.065C20.1864 196.737 28.5173 218.526 42.9361 237.751ZM242.878 237.751C257.296 218.205 265.627 196.417 267.229 172.065C252.17 172.065 237.11 172.065 222.05 172.065C221.089 189.688 218.205 206.991 213.079 223.332C223.332 228.459 232.945 232.945 242.878 237.751ZM152.199 153.801C169.822 153.801 187.125 153.801 204.427 153.801C203.786 137.78 200.903 122.72 196.417 108.302C181.357 110.545 166.938 112.787 152.199 115.03C152.199 127.847 152.199 140.664 152.199 153.801ZM204.427 172.385C186.804 172.385 169.502 172.385 152.199 172.385C152.199 185.523 152.199 198.66 152.199 211.156C166.938 213.399 181.677 215.642 196.417 217.885C200.903 203.146 203.466 188.086 204.427 172.385ZM81.7068 154.121C99.3298 154.121 116.632 154.121 133.935 154.121C133.935 140.984 133.935 127.847 133.935 115.351C119.196 113.108 104.457 110.865 89.7173 108.622C84.911 123.041 82.3476 138.101 81.7068 154.121ZM133.935 172.385C116.312 172.385 99.0094 172.385 81.7068 172.385C82.3476 188.086 84.911 203.466 89.7173 217.885C104.777 215.642 119.196 213.399 133.935 211.156C133.935 198.339 133.935 185.523 133.935 172.385ZM152.199 38.4503C152.199 57.9958 152.199 77.2209 152.199 96.4461C165.016 96.1257 177.512 94.2031 189.688 90.6785C180.716 70.4921 168.861 52.8691 152.199 38.4503ZM152.199 288.057C168.861 273.317 181.037 255.694 190.008 235.508C177.512 232.304 165.016 230.381 152.199 229.74C152.199 248.965 152.199 268.191 152.199 288.057ZM95.8052 234.867C105.097 255.694 116.953 272.997 133.615 287.736C133.615 267.87 133.615 248.965 133.615 229.099C121.118 231.022 108.622 232.945 95.8052 234.867ZM133.615 97.0869C133.615 76.9005 133.615 57.9958 133.615 38.1298C116.953 52.8691 104.777 70.4921 95.8052 90.999C108.622 93.2419 120.798 95.1644 133.615 97.0869ZM101.893 280.687C92.601 268.191 84.911 255.053 78.823 240.635C70.8126 244.48 63.1225 248.004 55.112 251.849C68.8901 265.307 84.2702 274.919 101.893 280.687ZM78.823 85.5518C85.2314 70.8126 92.9215 57.6754 102.214 45.4995C84.2702 51.267 68.8901 60.8796 55.112 74.3372C63.1225 78.1822 70.8126 81.7068 78.823 85.5518ZM206.991 240.635C200.582 255.053 192.892 268.511 183.6 280.687C201.543 274.919 216.924 264.986 230.702 251.529C222.691 248.004 215.001 244.48 206.991 240.635ZM267.55 154.121C266.909 148.674 266.268 143.868 265.307 138.741C260.821 142.586 256.976 146.431 252.81 149.636C248.645 153.16 244.48 153.16 240.314 149.636C234.226 144.188 228.138 138.101 222.371 132.333C221.409 131.692 220.769 130.731 219.487 129.449C220.448 138.101 221.089 146.111 222.05 154.121C237.43 154.121 252.49 154.121 267.55 154.121ZM188.086 51.5874C189.688 46.7812 189.047 46.1403 183.6 45.4995C184.882 47.422 186.484 49.3445 188.086 51.5874Z" fill="url(#paint0_linear)"/>
<path d="M247.043 32.0419C262.103 32.0419 273.958 44.5382 273.638 59.2775C273.317 74.0167 261.141 86.1926 246.722 85.8722C231.983 85.5518 219.807 73.6963 219.807 58.9571C220.128 44.2178 232.304 32.0419 247.043 32.0419ZM247.043 49.9853C242.237 49.9853 238.071 53.8303 237.751 58.6366C237.751 63.4429 241.916 67.9288 246.722 67.9288C251.529 67.9288 255.694 63.7633 255.694 58.9571C256.015 54.1508 252.17 49.9853 247.043 49.9853Z" fill="url(#paint1_linear)"/>
</g>
<defs>
<linearGradient id="paint0_linear" x1="0" y1="153" x2="306" y2="153" gradientUnits="userSpaceOnUse">
<stop stop-color="#682690"/>
<stop offset="0.0337347" stop-color="#63258E"/>
<stop offset="0.2576" stop-color="#4A2185"/>
<stop offset="0.4892" stop-color="#371E7F"/>
<stop offset="0.7311" stop-color="#2D1D7B"/>
<stop offset="1" stop-color="#291C7A"/>
</linearGradient>
<linearGradient id="paint1_linear" x1="220.008" y1="59.0291" x2="273.819" y2="59.0291" gradientUnits="userSpaceOnUse">
<stop stop-color="#682690"/>
<stop offset="0.0337347" stop-color="#63258E"/>
<stop offset="0.2576" stop-color="#4A2185"/>
<stop offset="0.4892" stop-color="#371E7F"/>
<stop offset="0.7311" stop-color="#2D1D7B"/>
<stop offset="1" stop-color="#291C7A"/>
</linearGradient>
<clipPath id="clip0">
<rect width="306" height="306" fill="white"/>
</clipPath>
</defs>
</svg>
