<svg width="332" height="332" viewBox="0 0 332 332" fill="none" xmlns="http://www.w3.org/2000/svg">
<path d="M98.9 0C104.8 0 110.7 0 116.6 0C118 0.4 119.3 1.1 120.8 1.2C158.4 6.2 189.1 36.7 193.5 74.4C194.7 84.6 193.7 95.1 193.7 105.5C202.5 106.9 209.7 106.9 215.4 98.2C220.8 90 229.9 85.6 239.9 85.2C251.6 84.7 263.5 84.3 275.1 85.6C293.1 87.7 306.7 104.2 307.3 122.2C307.5 127.9 305.3 131.5 300.2 133.7C293.3 136.7 286.5 139.8 279.5 142.9C282.3 147.7 285.1 151.8 287.1 156.2C288.8 160 291.1 161.2 295 160.8C314.1 159.1 326.2 167.9 332 185.9C332 195.2 332 204.6 332 213.9C324.5 234.2 317.8 239 296.4 240.1C294 240.2 291.1 242.6 289.5 244.7C282.6 254.1 275.9 263.7 269.4 273.4C264.5 280.6 252.8 281.5 251.2 291C249.8 299.6 250.9 308.6 250.9 317.5C250.9 317.7 250.9 318 250.9 318.2C251.8 324.6 249.2 329.1 243.5 332C228.7 332 214 332 199.2 332C193.6 329 191.5 324.3 191.8 318.1C192.1 312.1 191.9 306 191.9 299.6C182.1 299.6 173.3 299.6 164.5 299.6C155.5 299.6 146.6 299.6 137.3 299.6C137.3 306.6 137 312.5 137.4 318.3C137.9 324.7 135.7 329.3 129.9 332C115.1 332 100.4 332 85.6 332C80 329 78 324.3 78.4 318C78.8 310.6 78.1 303.2 78.6 295.9C79 290.6 77.1 287.6 72.7 284.7C50.6 270.3 36.6 250.1 32.4 224C30.4 211.7 30.8 199.1 30.1 186.1C15 182 5.59998 171.2 0.0999756 156.3C0.0999756 154.3 0.0999756 152.4 0.0999756 150.4C2.69998 146.2 6.19998 142.2 11.2 144.3C14.6 145.7 17.7 149.6 19.5 153.1C23 160 27.3 165.4 35.3 167.2C38.9 160 42.4 153.1 45.9 146.2C45 145 44.2 144.1 43.4 143.2C10.1 104.7 16.5 47.2 57.1 16.9C69.7 7.6 84 3.3 98.9 0ZM287.4 118.2C283.3 108.1 276.2 103.8 266.5 103.7C259.9 103.6 253.2 103.6 246.6 103.7C236.6 103.9 229.2 108 225.5 117.8C223.4 123.3 219.3 125.6 213.4 125.5C206.3 125.4 199.1 125.8 192 125.4C187.2 125.1 184.8 126.8 182.3 131C163.4 162.7 126.7 179 90.8 171.1C80.5 168.8 70.7 164.1 60.4 160.4C54 170.3 50.6 181.6 49.7 193.8C47.3 229 58.9 256.8 91.5 273.9C94.5 275.5 96.9 280.7 97.3 284.5C98.1 293.7 97.6 303 97.6 312.5C104.8 312.5 111.1 312.5 118.1 312.5C118.1 305.6 118 299 118.1 292.4C118.2 283.9 121.6 280.5 130.3 280.5C153.4 280.4 176.5 280.4 199.6 280.5C207.8 280.5 211.1 283.9 211.2 292.1C211.3 298.9 211.2 305.7 211.2 312.4C218.6 312.4 224.9 312.4 231.7 312.4C231.7 302.6 231.1 293.2 232 284C232.4 280.1 235.1 274.8 238.3 273C256.1 262.7 268.8 248.5 275 228.8C276.7 223.5 280.3 220.9 286.1 221.1C291 221.3 295.9 221.3 300.8 221.1C308.3 220.7 312.6 216.3 312.8 208.9C313 203.5 313 198.1 312.8 192.7C312.6 184.8 308.3 180.5 300.4 180.3C295.5 180.2 290.6 180 285.7 180.3C279.4 180.7 276 177.5 273.1 172.2C268.5 163.9 263.6 155.7 257.9 148.1C251.7 139.9 252.6 134.1 262.3 129.7C270.4 125.9 278.6 122.2 287.4 118.2ZM108.5 153.5C145.2 153.4 175.5 123.7 175.6 87.4C175.7 49.7 145.5 19.2 108.2 19.2C71.4 19.2 41.3 49.4 41.4 86.3C41.4 124.1 70.9 153.6 108.5 153.5Z" fill="url(#paint0_linear)"/>
<path d="M247.4 163.7C246.6 169 244.2 172.7 238.2 172.9C232.5 173.1 228.4 169.1 228.6 163.4C228.9 157.5 232.3 154.5 238 154.5C244 154.4 246.7 158 247.4 163.7Z" fill="url(#paint1_linear)"/>
<path d="M118.7 38.2C129.6 37.7 138.1 41 142.6 51.1C146.3 59.3 144.4 66.1 138 68.7C132.1 71.1 127.3 67.4 124.3 57.6C116.7 57.6 108.9 57.5 101.1 57.6C95.2999 57.7 91.8999 60.7 91.5999 66.6C91.3999 72.6 94.8999 75.8 100.4 76.4C105.3 76.9 110.2 76.5 115.1 76.6C131.1 76.8 142.7 87.1 144.5 102.8C146.1 116.6 135.9 129.8 121.1 133.1C120.4 133.3 119.7 133.5 118.6 133.8C117.7 140.7 118.7 149.7 107.8 149.3C98.4999 148.9 98.8999 141.3 98.5999 134.5C94.8999 134 91.4999 133.7 88.1999 133C79.2999 131 72.2999 122.2 72.2999 113.3C72.2999 108.3 74.1999 104.5 79.2999 103.4C84.6999 102.2 89.3999 103.8 90.7999 109.7C91.7999 114 93.8999 115.1 97.9999 114.9C103.6 114.6 109.3 115 115 114.8C121.5 114.5 126 110.2 125.4 104.8C124.8 98.7 121 95.9 114.9 95.9C109 95.9 103 96.1 97.2999 95.3C83.1999 93.3 73.3999 82.8 72.4999 69.3C71.5999 55.3 79.7999 43.8 93.6999 39.6C95.2999 39.1 96.8999 38.6 98.8999 37.9C98.5999 31.1 99.7999 24.8 108.1 23.9C114 23 117.3 27.5 118.7 38.2Z" fill="url(#paint2_linear)"/>
<defs>
<linearGradient id="paint0_linear" x1="-2.44088e-05" y1="166.027" x2="332.054" y2="166.027" gradientUnits="userSpaceOnUse">
<stop stop-color="#682690"/>
<stop offset="0.0337347" stop-color="#63258E"/>
<stop offset="0.2576" stop-color="#4A2185"/>
<stop offset="0.4892" stop-color="#371E7F"/>
<stop offset="0.7311" stop-color="#2D1D7B"/>
<stop offset="1" stop-color="#291C7A"/>
</linearGradient>
<linearGradient id="paint1_linear" x1="228.63" y1="163.72" x2="247.438" y2="163.72" gradientUnits="userSpaceOnUse">
<stop stop-color="#682690"/>
<stop offset="0.0337347" stop-color="#63258E"/>
<stop offset="0.2576" stop-color="#4A2185"/>
<stop offset="0.4892" stop-color="#371E7F"/>
<stop offset="0.7311" stop-color="#2D1D7B"/>
<stop offset="1" stop-color="#291C7A"/>
</linearGradient>
<linearGradient id="paint2_linear" x1="72.223" y1="86.416" x2="144.673" y2="86.416" gradientUnits="userSpaceOnUse">
<stop stop-color="#682690"/>
<stop offset="0.0337347" stop-color="#63258E"/>
<stop offset="0.2576" stop-color="#4A2185"/>
<stop offset="0.4892" stop-color="#371E7F"/>
<stop offset="0.7311" stop-color="#2D1D7B"/>
<stop offset="1" stop-color="#291C7A"/>
</linearGradient>
</defs>
</svg>
